<svg width="44" height="43" viewBox="0 0 44 43" fill="none" xmlns="http://www.w3.org/2000/svg">
<path d="M42.3379 16.1075C43.2379 19.6075 43.2379 23.2075 42.3379 26.6075C41.4379 30.2075 39.5379 33.7075 36.7379 36.6075C33.9379 39.4075 30.5379 41.3075 26.9379 42.2075C25.0379 41.6075 23.2379 40.8075 21.5379 39.7075C20.2379 38.9075 19.0379 37.9075 17.9379 36.8075C15.9379 34.8075 14.3379 32.4075 13.3379 29.9075C12.9379 28.9075 12.6379 27.9075 12.3379 26.9075C12.7379 27.6075 13.3379 28.3075 13.9379 28.9075C14.8379 29.8075 15.9379 30.5075 17.0379 31.0075C19.7379 32.3075 22.9379 32.3075 25.7379 31.1075C27.3379 30.8075 28.8379 30.3075 30.3379 29.7075C32.7379 28.7075 34.9379 27.2075 36.9379 25.2075C38.2379 23.9075 39.2379 22.6075 40.1379 21.1075C41.1379 19.7075 41.8379 17.9075 42.3379 16.1075Z" fill="url(#paint0_linear_9280_182952)"/>
<path d="M19.5379 10.9075C17.4379 11.3075 15.5379 12.3075 13.9379 13.9075C13.4379 14.4075 12.9379 15.0075 12.6379 15.5075C10.3379 19.0075 10.2379 23.5075 12.4379 27.0075C12.7379 28.0075 13.0379 29.0075 13.4379 30.0075C14.4379 32.5075 16.0379 34.8075 18.0379 36.9075C19.1379 38.0075 20.3379 39.0075 21.6379 39.8075C23.3379 40.9075 25.1379 41.7075 27.0379 42.3075C23.3379 43.2075 19.5379 43.2075 15.8379 42.2075C12.3379 41.2075 9.13791 39.4075 6.33791 36.7075C3.53791 33.9075 1.73792 30.6075 0.737915 27.1075C1.23792 25.1075 2.03792 23.1075 3.23792 21.2075C4.13792 19.7075 5.13791 18.4075 6.43791 17.1075C8.63791 14.9075 11.1379 13.3075 13.8379 12.2075C15.7379 11.5075 17.6379 11.1075 19.5379 10.9075Z" fill="url(#paint1_radial_9280_182952)"/>
<path d="M36.7379 6.2075C39.5379 9.0075 41.4379 12.5075 42.3379 16.1075C41.8379 17.9075 41.0379 19.6075 40.0379 21.3075C39.1379 22.8075 38.1379 24.1075 36.8379 25.4075C34.8379 27.4075 32.6379 28.9075 30.2379 29.9075C28.7379 30.5075 27.2379 31.0075 25.6379 31.3075C26.8379 30.8075 28.0379 30.0075 29.0379 29.0075C30.4379 27.6075 31.4379 25.8075 31.8379 24.0075C32.2379 22.4075 32.2379 20.7075 31.9379 19.1075C31.7379 16.9075 31.1379 14.7075 30.2379 12.6075C29.2379 10.2075 27.7379 8.0075 25.7379 6.1075C24.6379 5.0075 23.4379 4.0075 22.1379 3.2075C20.3379 2.0075 18.3379 1.1075 16.2379 0.6075C20.0379 -0.2925 23.9379 -0.1925 27.6379 0.9075C31.0379 1.8075 34.1379 3.6075 36.7379 6.2075Z" fill="url(#paint2_linear_9280_182952)"/>
<path d="M25.8379 6.10745C27.7379 8.00745 29.2379 10.3074 30.3379 12.6074C31.2379 14.7074 31.8379 16.9074 32.0379 19.1074C31.6379 17.2074 30.6379 15.3074 29.1379 13.8074C27.5379 12.2074 25.4379 11.2074 23.3379 10.8074C22.1379 10.6074 20.8379 10.6074 19.5379 10.8074C17.6379 11.0074 15.7379 11.4074 13.8379 12.1074C11.1379 13.1074 8.53795 14.8074 6.43795 17.0074C5.13795 18.3074 4.13795 19.6074 3.23795 21.1074C2.13795 23.0074 1.33795 24.9074 0.737946 27.0074C-0.262054 23.2074 -0.262053 19.2074 0.837947 15.4074C1.83795 12.0074 3.63795 8.80745 6.33795 6.20745C9.23795 3.30745 12.7379 1.40745 16.3379 0.507446C18.3379 1.10745 20.3379 1.90745 22.2379 3.10745C23.5379 4.00745 24.7379 5.00745 25.8379 6.10745Z" fill="url(#paint3_linear_9280_182952)"/>
<defs>
<linearGradient id="paint0_linear_9280_182952" x1="20.0944" y1="34.6989" x2="39.6125" y2="24.7229" gradientUnits="userSpaceOnUse">
<stop offset="0.0329988" stop-color="#1465DB"/>
<stop offset="1" stop-color="#5F99FF"/>
</linearGradient>
<radialGradient id="paint1_radial_9280_182952" cx="0" cy="0" r="1" gradientUnits="userSpaceOnUse" gradientTransform="translate(9.82211 21.7035) scale(25.6235 25.211)">
<stop offset="0.0956921" stop-color="#0B47FE"/>
<stop offset="0.8118" stop-color="#478AEA"/>
</radialGradient>
<linearGradient id="paint2_linear_9280_182952" x1="40.3308" y1="2.2457" x2="21.138" y2="17.4265" gradientUnits="userSpaceOnUse">
<stop offset="0.0688251" stop-color="#8FFEE9"/>
<stop offset="1" stop-color="#00D0B3"/>
</linearGradient>
<linearGradient id="paint3_linear_9280_182952" x1="20.7234" y1="19.7905" x2="5.10905" y2="11.7664" gradientUnits="userSpaceOnUse">
<stop offset="0.0569487" stop-color="#06C1A1"/>
<stop offset="1" stop-color="#00D2B5"/>
</linearGradient>
</defs>
</svg>
