<svg width="24" height="24" viewBox="0 0 24 24" fill="none" xmlns="http://www.w3.org/2000/svg">
<path fill-rule="evenodd" clip-rule="evenodd" d="M5.88675 16.0913C6.04545 16.6203 5.74527 17.1778 5.21628 17.3365C4.36346 17.5924 3.74616 17.8771 3.36438 18.1479C3.10179 18.3342 3.0263 18.4558 3.00582 18.5C3.02629 18.5441 3.10179 18.6658 3.36438 18.8521C3.74615 19.1228 4.36346 19.4076 5.21628 19.6635C6.90919 20.1713 9.30786 20.5 12 20.5C14.6921 20.5 17.0908 20.1713 18.7837 19.6635C19.6365 19.4076 20.2538 19.1228 20.6356 18.8521C20.8982 18.6658 20.9737 18.5441 20.9942 18.5C20.9737 18.4558 20.8982 18.3342 20.6356 18.1479C20.2538 17.8771 19.6365 17.5924 18.7837 17.3365C18.2547 17.1778 17.9545 16.6203 18.1132 16.0913C18.2719 15.5623 18.8294 15.2622 19.3584 15.4209C20.3152 15.7079 21.1624 16.0696 21.7927 16.5166C22.397 16.9452 23 17.601 23 18.5C23 19.399 22.397 20.0548 21.7927 20.4834C21.1624 20.9304 20.3152 21.2921 19.3584 21.5791C17.432 22.157 14.8307 22.5 12 22.5C9.16929 22.5 6.56796 22.157 4.64158 21.5791C3.68476 21.2921 2.8376 20.9304 2.20732 20.4834C1.60301 20.0548 1 19.399 1 18.5C1 17.601 1.60303 16.9452 2.20732 16.5166C2.8376 16.0696 3.68476 15.7079 4.64158 15.4209C5.17057 15.2622 5.72806 15.5623 5.88675 16.0913Z" fill="#8F959E"/>
<path fill-rule="evenodd" clip-rule="evenodd" d="M4.5 8.3409C4.5 4.26342 7.88137 1 12 1C16.1186 1 19.5 4.26342 19.5 8.3409C19.5 11.2082 17.6294 13.7447 15.9679 15.4582C15.1148 16.338 14.2653 17.0533 13.6304 17.5482C13.3121 17.7963 13.0457 17.9906 12.8569 18.1242C12.7624 18.191 12.6873 18.2428 12.6346 18.2785C12.6082 18.2964 12.5875 18.3103 12.5728 18.3201L12.5553 18.3317L12.55 18.3352L12.5482 18.3363C12.548 18.3365 12.5471 18.3371 12 17.5C11.4529 18.3371 11.4527 18.3369 11.4524 18.3368L11.45 18.3352L11.4447 18.3317L11.4272 18.3201C11.4125 18.3103 11.3918 18.2964 11.3654 18.2785C11.3127 18.2428 11.2376 18.191 11.1431 18.1242C10.9543 17.9906 10.6879 17.7963 10.3696 17.5482C9.73466 17.0533 8.88516 16.338 8.03208 15.4582C6.3706 13.7447 4.5 11.2082 4.5 8.3409ZM12 17.5L11.4524 18.3368C11.7848 18.554 12.2147 18.5543 12.5471 18.3371L12 17.5ZM12 16.2755C12.1187 16.1876 12.2534 16.0857 12.4009 15.9708C12.9847 15.5157 13.7602 14.8621 14.5321 14.066C16.1206 12.4277 17.5 10.3847 17.5 8.3409C17.5 5.41442 15.0611 3 12 3C8.93893 3 6.5 5.41442 6.5 8.3409C6.5 10.3847 7.8794 12.4277 9.46792 14.066C10.2398 14.8621 11.0153 15.5157 11.5991 15.9708C11.7466 16.0857 11.8813 16.1876 12 16.2755Z" fill="#8F959E"/>
<path fill-rule="evenodd" clip-rule="evenodd" d="M8.5 8.5C8.5 6.56702 10.067 5 12 5C13.933 5 15.5 6.56702 15.5 8.5C15.5 10.433 13.933 12 12 12C10.067 12 8.5 10.433 8.5 8.5ZM12 7C11.1716 7 10.5 7.67158 10.5 8.5C10.5 9.32842 11.1716 10 12 10C12.8284 10 13.5 9.32842 13.5 8.5C13.5 7.67158 12.8284 7 12 7Z" fill="#8F959E"/>
</svg>
