<svg width="24" height="24" viewBox="0 0 24 24" fill="none" xmlns="http://www.w3.org/2000/svg">
<g clip-path="url(#clip0_2052_12967)">
<mask id="mask0_2052_12967" style="mask-type:luminance" maskUnits="userSpaceOnUse" x="0" y="0" width="24" height="24">
<path d="M24.0001 0H0V23.9998H24.0001V0Z" fill="white"/>
</mask>
<g mask="url(#mask0_2052_12967)">
<path d="M9.07851 10.8076L16.7127 13.9691L16.532 14.4454L8.71997 11.7537L9.07851 10.8076Z" fill="#8F959E"/>
<path d="M9.28943 11.292L10.8688 19.4322L9.86989 19.5948L8.78638 11.3737L9.28943 11.292Z" fill="#8F959E"/>
<path d="M17.133 14.4427L10.5028 19.5348L10.1797 19.1402L16.4926 13.6592L17.133 14.4427Z" fill="#8F959E"/>
<path d="M18.6447 15.5485L8.49951 9.30061L9.08929 8.39062L18.941 15.0903L18.6447 15.5485Z" fill="#8F959E"/>
<path d="M9.06704 8.86023L8.72873 20.769L7.646 20.7142L8.52203 8.83203L9.06704 8.86023Z" fill="#8F959E"/>
<path d="M8.06323 20.4987L18.5467 14.8369L19.0396 15.8019L8.31187 20.9843L8.06323 20.4987Z" fill="#8F959E"/>
<path d="M21.3108 18.112L9.22852 5.56422L10.0749 4.77637L21.7365 17.7145L21.3108 18.112Z" fill="#8F959E"/>
<path d="M10.0148 5.34636L5.22624 21.9642L4.12036 21.6252L9.45819 5.17578L10.0148 5.34636Z" fill="#8F959E"/>
<path d="M4.60791 21.5094L21.5308 17.3164L21.791 18.4433L4.73874 22.0768L4.60791 21.5094Z" fill="#8F959E"/>
<path d="M9.37029 13.8253L11.6681 17.8058C11.8155 18.0617 12.1849 18.0617 12.3323 17.8058L14.6301 13.8253C14.7776 13.5695 14.5933 13.25 14.2983 13.25H9.70277C9.40791 13.25 9.22209 13.5695 9.37029 13.8253ZM11.7975 16.4426L10.6149 14.3949C10.5246 14.2388 10.6374 14.0436 10.8181 14.0436H13.183C13.363 14.0436 13.4758 14.2388 13.3862 14.3949L12.2037 16.4426C12.1133 16.5988 11.8878 16.5988 11.7975 16.4426Z" fill="#8F959E"/>
<path d="M11.6256 2.89017C10.4763 4.87932 2.26755 19.0896 1.33153 20.7288C1.22456 20.9862 1.42188 21.3108 1.70233 21.3158C1.7775 21.323 2.3514 21.3194 2.46126 21.3201C7.82588 21.3223 16.7048 21.3186 22.0838 21.3201C22.1676 21.3201 22.292 21.3209 22.2977 21.3158C22.3317 21.3186 22.3585 21.3049 22.3888 21.3035C22.6223 21.2334 22.7632 20.9587 22.6685 20.7296C22.6461 20.697 22.6556 20.6928 22.5948 20.593C19.8706 15.8702 15.9226 9.03904 13.1919 4.30686C13.0242 4.0293 12.54 3.16773 12.3745 2.89089C12.2118 2.60828 11.7875 2.60467 11.6249 2.89089L11.6256 2.89017ZM10.4988 2.23965C10.9989 1.35711 12.2017 1.10196 13.0206 1.70333C13.2165 1.84862 13.3784 2.0351 13.502 2.23965L13.7745 2.71164L14.3195 3.65561C16.7532 7.87099 20.6071 14.546 23.0408 18.7614L23.5857 19.7054C23.6775 19.8695 23.7621 19.9938 23.8735 20.2352C23.9616 20.4607 24.0072 20.7043 23.9992 20.9478C23.9782 21.6829 23.4513 22.3573 22.7422 22.5546C22.5124 22.6197 22.2399 22.6226 22.0838 22.6197C16.6939 22.6132 7.83455 22.6248 2.46126 22.6197C2.09192 22.6067 1.66401 22.6616 1.25781 22.554C0.280581 22.2815 -0.262964 21.1705 0.127347 20.2338C1.08795 18.5019 9.32203 4.29385 10.4988 2.23965Z" fill="#8F959E"/>
<path d="M10.9215 3.01969C9.66309 5.94341 8.5818 9.33838 9.64286 12.4768C9.7968 12.9091 9.98837 13.3239 10.2255 13.7179L9.53949 14.119C9.28217 13.6861 9.06609 13.2133 8.89912 12.7334C7.92403 9.86963 8.65046 6.7768 9.69489 4.05185C9.87052 3.60227 10.0577 3.15846 10.2529 2.71973L10.9208 3.01896L10.9215 3.01969Z" fill="#8F959E"/>
<path d="M2.19849 21.8625C5.36001 21.4903 8.84097 20.7299 11.0282 18.2406C11.3252 17.8915 11.5891 17.5178 11.8117 17.1152L12.502 17.5084C12.2555 17.9479 11.9541 18.3715 11.6223 18.756C9.62954 21.032 6.58876 21.95 3.70624 22.4076C3.2292 22.4798 2.75143 22.5398 2.27366 22.5904L2.19849 21.8625Z" fill="#8F959E"/>
<path d="M22.8797 19.9965C20.9766 17.4442 18.5777 14.8103 15.3287 14.1605C14.8776 14.0781 14.4222 14.0362 13.9625 14.0449L13.9583 13.2506C14.462 13.2441 14.9789 13.2932 15.4783 13.3886C18.4454 13.9762 20.7612 16.1511 22.5986 18.4185C22.9 18.7952 23.1905 19.1797 23.4731 19.5678L22.8797 19.9965Z" fill="#8F959E"/>
</g>
</g>
<defs>
<clipPath id="clip0_2052_12967">
<rect width="24" height="24" fill="white"/>
</clipPath>
</defs>
</svg>
