<svg width="24" height="24" viewBox="0 0 24 24" fill="none" xmlns="http://www.w3.org/2000/svg">
<path fill-rule="evenodd" clip-rule="evenodd" d="M1 4.5C1 3.94772 1.44772 3.5 2 3.5H22C22.5523 3.5 23 3.94772 23 4.5V19.5C23 20.0523 22.5523 20.5 22 20.5H2C1.44772 20.5 1 20.0523 1 19.5V4.5ZM3 5.5V18.5H21V5.5H3Z" fill="#8F959E"/>
<path fill-rule="evenodd" clip-rule="evenodd" d="M1.20006 3.90006C1.53143 3.45823 2.15823 3.36869 2.60006 3.70006L12.0001 10.7501L21.4001 3.70006C21.8419 3.36869 22.4687 3.45823 22.8001 3.90006C23.1314 4.34189 23.0419 4.96869 22.6001 5.30006L12.6001 12.8001C12.2445 13.0667 11.7556 13.0667 11.4001 12.8001L1.40006 5.30006C0.958231 4.96869 0.868688 4.34189 1.20006 3.90006Z" fill="#8F959E"/>
<path fill-rule="evenodd" clip-rule="evenodd" d="M1 4.5C1 3.94772 1.44772 3.5 2 3.5H12C12.5523 3.5 13 3.94772 13 4.5C13 5.05228 12.5523 5.5 12 5.5H3V12C3 12.5523 2.55228 13 2 13C1.44772 13 1 12.5523 1 12V4.5Z" fill="#8F959E"/>
<path fill-rule="evenodd" clip-rule="evenodd" d="M11 4.5C11 3.94772 11.4477 3.5 12 3.5H22C22.5523 3.5 23 3.94772 23 4.5V12C23 12.5523 22.5523 13 22 13C21.4477 13 21 12.5523 21 12V5.5H12C11.4477 5.5 11 5.05228 11 4.5Z" fill="#8F959E"/>
</svg>
