<svg width="30" height="30" viewBox="0 0 30 30" fill="none" xmlns="http://www.w3.org/2000/svg">
<g clip-path="url(#clip0_1847_12720)">
<path d="M8.96962 7.42833C11.6084 9.51017 13.8405 12.0218 15.5626 14.8475L17.292 13.2145C18.1138 12.4454 19.0899 11.8434 20.1619 11.4446C19.6762 9.87345 19.0158 8.56886 17.9333 7.27745C17.8691 7.2004 17.7874 7.13829 17.6945 7.09581C17.6016 7.05333 17.4997 7.03165 17.3966 7.03224H9.11844C9.0704 7.03224 9.02323 7.0463 8.98397 7.07296C8.94471 7.09933 8.91483 7.13683 8.89843 7.18019C8.88202 7.22355 8.88026 7.27042 8.89315 7.31495C8.90604 7.35919 8.9327 7.39874 8.96991 7.42804L8.96962 7.42833Z" fill="white"/>
<path d="M13.8691 17.4233C15.1365 17.9383 16.4291 18.3977 17.7589 18.7405C20.1316 19.3531 22.3822 18.4727 23.494 16.4439L24.8388 13.8827C25.1379 13.2593 25.5214 12.676 25.9793 12.1478C24.6738 11.6902 23.2591 11.5955 21.8997 11.8747C20.54 12.1542 19.2914 12.7961 18.2982 13.7266L16.2431 15.6666C15.518 16.3519 14.729 16.8994 13.8691 17.4236V17.4233Z" fill="white"/>
<path d="M5.50232 12.4158C5.46921 12.3856 5.42761 12.3651 5.3825 12.3572C5.33738 12.3493 5.2908 12.3543 5.24861 12.3712C5.20642 12.3882 5.17039 12.4167 5.1449 12.4533C5.11941 12.4896 5.10564 12.5324 5.10535 12.5763V20.3133C5.10535 20.4206 5.13259 20.526 5.18503 20.6207C5.23777 20.7153 5.31394 20.7959 5.4071 20.8556C7.52585 22.1986 9.34548 22.931 11.8879 22.9653C14.4302 22.9999 16.9293 22.3348 19.087 21.0496C19.8812 20.5767 20.0385 20.3754 20.7036 19.7605C19.4816 20.0757 18.3634 19.9864 17.1798 19.6817C12.1835 18.3903 9.14304 15.7796 5.50261 12.4161L5.50232 12.4158Z" fill="white"/>
<path d="M132.646 -22.7246H-286.657V90.0247H132.646V-22.7246Z" stroke="white" stroke-width="0.0292969" stroke-miterlimit="10"/>
</g>
<defs>
<clipPath id="clip0_1847_12720">
<rect width="30" height="30" fill="white"/>
</clipPath>
</defs>
</svg>
