<svg width="24" height="24" viewBox="0 0 24 24" fill="none" xmlns="http://www.w3.org/2000/svg">
<path d="M19.93 3.63312C19.8818 3.51073 19.8099 3.39906 19.7184 3.30451C19.6269 3.20996 19.5177 3.13439 19.397 3.08212C19.193 2.99412 17.388 2.30112 14.702 4.00012H9.298C6.608 2.29812 4.805 2.99412 4.603 3.08212C4.3597 3.18791 4.16811 3.38562 4.07 3.63212C3.456 5.18412 3.647 6.83012 3.886 7.77812C3.147 8.76612 3 9.68212 3 11.0001C3 15.1691 5.979 16.3411 8.314 16.7721C8.1662 17.1213 8.0637 17.4879 8.009 17.8631C8.00299 17.9085 7.99998 17.9543 8 18.0001V18.9051C7.543 18.8081 7.039 18.6251 6.707 18.2931C5.58 17.1661 4.414 16.0001 3 16.0001V18.0001C3.586 18.0001 4.532 18.9461 5.293 19.7071C6.489 20.9031 8.318 21.0021 8.888 21.0021C8.961 21.0021 9.014 21.0001 9.041 20.9991C9.29887 20.9885 9.54267 20.8787 9.7214 20.6925C9.90013 20.5063 9.99996 20.2582 10 20.0001V18.0761C10.1 17.4961 10.474 16.9131 10.655 16.7551C10.8013 16.6278 10.9075 16.4607 10.9606 16.2742C11.0137 16.0876 11.0113 15.8897 10.9539 15.7044C10.8965 15.5192 10.7864 15.3546 10.6371 15.2308C10.4878 15.107 10.3057 15.0293 10.113 15.0071C6.875 14.6381 5 13.8631 5 11.0001C5 9.75512 5.132 9.34212 5.74 8.67312C5.998 8.38912 6.07 7.98012 5.927 7.62312C5.814 7.34412 5.487 6.08912 5.775 4.86812C6.259 4.83112 7.179 4.97512 8.44 5.82812C8.604 5.94012 8.8 6.00012 9 6.00012H15C15.2 6.00017 15.3954 5.94026 15.561 5.82812C16.827 4.97212 17.74 4.84912 18.225 4.86412C18.514 6.08812 18.188 7.34312 18.075 7.62212C18.0034 7.79742 17.9831 7.98945 18.0164 8.17586C18.0497 8.36228 18.1352 8.53541 18.263 8.67512C18.869 9.33912 19 9.75212 19 11.0001C19 13.8731 17.126 14.6451 13.889 15.0061C13.6956 15.0277 13.5128 15.1053 13.3629 15.2293C13.2129 15.3533 13.1024 15.5184 13.0449 15.7042C12.9874 15.8901 12.9853 16.0887 13.039 16.2757C13.0926 16.4627 13.1997 16.63 13.347 16.7571C13.811 17.1571 14 17.5181 14 18.0001V21.0001H16V18.0001C16 17.5211 15.908 17.1071 15.771 16.7551C18.045 16.3071 21 15.0871 21 11.0001C21 9.67912 20.853 8.76112 20.115 7.77712C20.354 6.83012 20.543 5.18712 19.93 3.63312Z" fill="#8F959E"/>
</svg>
