<svg width="528" height="200" viewBox="0 0 528 200" fill="none" xmlns="http://www.w3.org/2000/svg">
<path d="M0 32C0 14.3269 14.3269 0 32 0H496C513.673 0 528 14.3269 528 32V200H0V32Z" fill="white"/>
<g filter="url(#filter0_d_1163_13680)">
<rect x="224" y="60" width="80" height="80" rx="22.8571" fill="white" shape-rendering="crispEdges"/>
<rect x="223.667" y="59.6667" width="80.6667" height="80.6667" rx="23.1905" stroke="#BED2E5" stroke-opacity="0.25" stroke-width="0.666667" shape-rendering="crispEdges"/>
<path d="M287.244 94.4087C288.272 98.4087 288.272 102.523 287.244 106.409C286.215 110.523 284.044 114.523 280.844 117.837C277.644 121.037 273.758 123.209 269.644 124.237C267.472 123.552 265.415 122.637 263.472 121.38C261.987 120.466 260.615 119.323 259.358 118.066C257.072 115.78 255.244 113.037 254.101 110.18C253.644 109.037 253.301 107.894 252.958 106.752C253.415 107.552 254.101 108.352 254.787 109.037C255.815 110.066 257.072 110.866 258.329 111.437C261.415 112.923 265.072 112.923 268.272 111.552C270.101 111.209 271.815 110.637 273.529 109.952C276.272 108.809 278.787 107.094 281.072 104.809C282.558 103.323 283.701 101.837 284.729 100.123C285.872 98.523 286.672 96.4658 287.244 94.4087Z" fill="url(#paint0_linear_1163_13680)"/>
<path d="M261.187 88.4663C258.787 88.9235 256.615 90.0663 254.787 91.8949C254.215 92.4663 253.644 93.152 253.301 93.7235C250.673 97.7235 250.558 102.866 253.073 106.866C253.415 108.009 253.758 109.152 254.215 110.295C255.358 113.152 257.187 115.781 259.473 118.181C260.73 119.438 262.101 120.581 263.587 121.495C265.53 122.752 267.587 123.666 269.758 124.352C265.53 125.381 261.187 125.381 256.958 124.238C252.958 123.095 249.301 121.038 246.101 117.952C242.901 114.752 240.844 110.981 239.701 106.981C240.273 104.695 241.187 102.409 242.558 100.238C243.587 98.5234 244.73 97.0377 246.215 95.552C248.73 93.0377 251.587 91.2092 254.673 89.952C256.844 89.152 259.015 88.6949 261.187 88.4663Z" fill="url(#paint1_radial_1163_13680)"/>
<path d="M280.845 83.0943C284.045 86.2943 286.216 90.2943 287.245 94.4086C286.673 96.4657 285.759 98.4086 284.616 100.351C283.587 102.066 282.445 103.551 280.959 105.037C278.673 107.323 276.159 109.037 273.416 110.18C271.702 110.866 269.987 111.437 268.159 111.78C269.53 111.209 270.902 110.294 272.045 109.151C273.645 107.551 274.787 105.494 275.245 103.437C275.702 101.609 275.702 99.6657 275.359 97.8371C275.13 95.3229 274.445 92.8086 273.416 90.4086C272.273 87.6657 270.559 85.1514 268.273 82.98C267.016 81.7229 265.645 80.58 264.159 79.6657C262.102 78.2943 259.816 77.2657 257.416 76.6943C261.759 75.6657 266.216 75.78 270.445 77.0371C274.33 78.0657 277.873 80.1229 280.845 83.0943Z" fill="url(#paint2_linear_1163_13680)"/>
<path d="M268.387 82.9806C270.558 85.152 272.272 87.7806 273.529 90.4091C274.558 92.8091 275.244 95.3234 275.472 97.8377C275.015 95.6663 273.872 93.4949 272.158 91.7806C270.329 89.952 267.929 88.8091 265.529 88.352C264.158 88.1234 262.672 88.1234 261.187 88.352C259.015 88.5806 256.844 89.0377 254.672 89.8377C251.587 90.9806 248.615 92.9234 246.215 95.4377C244.729 96.9234 243.587 98.4091 242.558 100.123C241.301 102.295 240.387 104.466 239.701 106.866C238.558 102.523 238.558 97.952 239.815 93.6091C240.958 89.7234 243.015 86.0663 246.101 83.0949C249.415 79.7806 253.415 77.6091 257.529 76.5806C259.815 77.2663 262.101 78.1806 264.272 79.552C265.758 80.5806 267.129 81.7234 268.387 82.9806Z" fill="url(#paint3_linear_1163_13680)"/>
</g>
<rect opacity="0.3" x="208.4" y="44.4" width="111.2" height="111.2" rx="22.46" stroke="#BED2E6" stroke-opacity="0.76" stroke-width="0.8"/>
<rect opacity="0.2" x="192.4" y="28.4" width="143.2" height="143.2" rx="22.46" stroke="#BED2E6" stroke-width="0.8"/>
<rect opacity="0.15" x="166.4" y="2.4" width="195.2" height="195.2" rx="22.46" stroke="#BED2E6" stroke-width="0.8"/>
<g filter="url(#filter1_d_1163_13680)">
<rect x="380" y="40" width="128" height="40" rx="8" fill="white" shape-rendering="crispEdges"/>
<rect x="380.25" y="40.25" width="127.5" height="39.5" rx="7.75" stroke="#DEE0E3" stroke-width="0.5" shape-rendering="crispEdges"/>
<path fill-rule="evenodd" clip-rule="evenodd" d="M398.5 52C398.5 51.1716 399.172 50.5 400 50.5H416C416.828 50.5 417.5 51.1716 417.5 52V68C417.5 68.8284 416.828 69.5 416 69.5H400C399.172 69.5 398.5 68.8284 398.5 68V52ZM400.5 52.5V67.5H415.5V52.5H400.5ZM406.584 61.6391L412.594 55.6287L414.009 57.0429L406.584 64.4675L401.988 59.8713L403.402 58.4571L406.584 61.6391Z" fill="#8F959E"/>
<path d="M442.368 56.176C441.131 57.2213 439.744 58.08 438.208 58.752V58.784C439.829 59.4667 441.36 60.3093 442.8 61.312L442.128 62.32C440.88 61.3387 439.6 60.5387 438.288 59.92C438.437 61.9467 438.699 63.344 439.072 64.112C439.68 65.4133 440.389 66.08 441.2 66.112C441.424 66.0907 441.616 65.9253 441.776 65.616C441.936 65.296 442.064 64.5867 442.16 63.488L443.264 63.856C443.104 65.2533 442.795 66.2507 442.336 66.848C441.973 67.1787 441.616 67.344 441.264 67.344C440.037 67.3227 439.019 66.5387 438.208 64.992C437.376 63.4027 436.96 60.0747 436.96 55.008H428.592V53.856H438.112V54.976C438.112 55.9147 438.128 56.7947 438.16 57.616C439.461 56.9867 440.645 56.2027 441.712 55.264L442.368 56.176ZM450.544 52.864H451.696V55.664H456.384V56.224L456.064 59.968H458.336C458.325 63.0293 458.075 64.8267 457.584 65.36C457.371 65.5947 457.051 65.76 456.624 65.856C456.219 65.9307 455.872 65.968 455.584 65.968H454.528L454.224 64.88L455.776 64.896C456.256 64.8853 456.597 64.752 456.8 64.496C457.013 64.2293 457.147 63.088 457.2 61.072H451.696V67.616H450.544V61.072H444.864V59.968H450.544V56.768H445.776V55.664H450.544V52.864ZM451.696 59.968H454.944L455.248 56.768H451.696V59.968ZM455.728 52.928C456.923 53.5467 458.005 54.2667 458.976 55.088L458.368 56.048C457.301 55.0773 456.224 54.3253 455.136 53.792L455.728 52.928ZM474.56 54.432C473.451 54.816 472.133 55.104 470.608 55.296V59.744H475.264V60.864H470.608V65.776H474.464V66.896H465.616V65.776H469.456V60.864H464.832V59.744H469.456V55.424C468.347 55.5093 467.237 55.552 466.128 55.552L465.76 54.464C469.067 54.464 471.808 54.128 473.984 53.456L474.56 54.432ZM465.392 53.456C464.987 54.6613 464.453 55.824 463.792 56.944V67.632H462.64V58.656C462.128 59.328 461.557 59.9787 460.928 60.608L460.56 59.376C462.277 57.5307 463.531 55.392 464.32 52.96L465.392 53.456ZM482.672 53.04C482.512 53.424 482.309 53.8293 482.064 54.256H489.04V55.184C488.016 56.368 486.768 57.376 485.296 58.208C487.109 58.976 489.125 59.472 491.344 59.696L490.816 60.768C488.288 60.48 486.032 59.84 484.048 58.848C482.085 59.7547 479.808 60.4053 477.216 60.8L476.688 59.712C479.003 59.392 481.04 58.88 482.8 58.176C481.925 57.664 481.093 57.0613 480.304 56.368C479.675 56.9333 479.008 57.4293 478.304 57.856L477.6 56.928C479.541 55.8187 480.843 54.4693 481.504 52.88L482.672 53.04ZM484.032 57.616C485.301 56.9867 486.421 56.2293 487.392 55.344H481.28L481.072 55.6C481.957 56.3787 482.944 57.0507 484.032 57.616ZM484.192 60C484.192 60.576 484.139 61.184 484.032 61.824H489.664C489.632 64.5333 489.387 66.1493 488.928 66.672C488.459 67.2053 487.659 67.472 486.528 67.472C486.261 67.472 485.637 67.4507 484.656 67.408L484.368 66.368L486.256 66.448C487.205 66.4373 487.808 66.2347 488.064 65.84C488.309 65.456 488.453 64.464 488.496 62.864H483.76C483.643 63.2587 483.472 63.6587 483.248 64.064C482.427 65.5147 480.549 66.704 477.616 67.632L476.848 66.688C479.483 65.92 481.216 64.9493 482.048 63.776C482.272 63.4453 482.437 63.1413 482.544 62.864H477.776V61.824H482.864C482.992 61.248 483.056 60.64 483.056 60H484.192Z" fill="#646A73"/>
</g>
<g filter="url(#filter2_d_1163_13680)">
<rect x="22" y="28" width="128" height="40" rx="8" fill="white" shape-rendering="crispEdges"/>
<rect x="22.25" y="28.25" width="127.5" height="39.5" rx="7.75" stroke="#DEE0E3" stroke-width="0.5" shape-rendering="crispEdges"/>
<path fill-rule="evenodd" clip-rule="evenodd" d="M40.5 48C40.5 42.7533 44.7533 38.5 50 38.5C55.2467 38.5 59.5 42.7533 59.5 48V48.3148C59.5 53.3877 55.3877 57.5 50.3148 57.5H40.5V48ZM50 40.5C45.8579 40.5 42.5 43.8579 42.5 48V55.5H50.3148C54.2831 55.5 57.5 52.2831 57.5 48.3148V48C57.5 43.8579 54.1421 40.5 50 40.5ZM54.5 45V47H45.5V45H54.5ZM50 51.5H45.5V49.5H50V51.5Z" fill="#8F959E"/>
<path d="M84.368 44.176C83.1307 45.2213 81.744 46.08 80.208 46.752V46.784C81.8293 47.4667 83.36 48.3093 84.8 49.312L84.128 50.32C82.88 49.3387 81.6 48.5387 80.288 47.92C80.4373 49.9467 80.6987 51.344 81.072 52.112C81.68 53.4133 82.3893 54.08 83.2 54.112C83.424 54.0907 83.616 53.9253 83.776 53.616C83.936 53.296 84.064 52.5867 84.16 51.488L85.264 51.856C85.104 53.2533 84.7947 54.2507 84.336 54.848C83.9733 55.1787 83.616 55.344 83.264 55.344C82.0373 55.3227 81.0187 54.5387 80.208 52.992C79.376 51.4027 78.96 48.0747 78.96 43.008H70.592V41.856H80.112V42.976C80.112 43.9147 80.128 44.7947 80.16 45.616C81.4613 44.9867 82.6453 44.2027 83.712 43.264L84.368 44.176ZM92.544 40.864H93.696V43.664H98.384V44.224L98.064 47.968H100.336C100.325 51.0293 100.075 52.8267 99.584 53.36C99.3707 53.5947 99.0507 53.76 98.624 53.856C98.2187 53.9307 97.872 53.968 97.584 53.968H96.528L96.224 52.88L97.776 52.896C98.256 52.8853 98.5973 52.752 98.8 52.496C99.0133 52.2293 99.1467 51.088 99.2 49.072H93.696V55.616H92.544V49.072H86.864V47.968H92.544V44.768H87.776V43.664H92.544V40.864ZM93.696 47.968H96.944L97.248 44.768H93.696V47.968ZM97.728 40.928C98.9227 41.5467 100.005 42.2667 100.976 43.088L100.368 44.048C99.3013 43.0773 98.224 42.3253 97.136 41.792L97.728 40.928ZM108.912 48.224H105.632C105.493 48.768 105.333 49.2853 105.152 49.776H109.344V55.472H108.32V54.544H105.792V55.504H104.768V50.72C104.32 51.68 103.803 52.4853 103.216 53.136L102.608 52.176C103.493 51.184 104.149 49.8667 104.576 48.224H103.328V47.232H104.816C104.933 46.6027 105.024 46 105.088 45.424H102.944V44.4H105.184C105.227 43.5893 105.253 42.9707 105.264 42.544H103.424V41.552H108.912V44.4H109.808V45.424H108.912V48.224ZM106.304 42.544C106.293 43.0133 106.267 43.632 106.224 44.4H107.856V42.544H106.304ZM106.128 45.424C106.075 45.8933 105.984 46.496 105.856 47.232H107.856V45.424H106.128ZM105.792 53.52H108.32V50.832H105.792V53.52ZM113.12 45.088H110.256V43.984H112.144C111.685 43.0133 111.232 42.16 110.784 41.424L111.76 40.96C112.24 41.728 112.699 42.5813 113.136 43.52L112.176 43.984H113.984C114.453 42.9813 114.853 41.936 115.184 40.848L116.272 41.232C115.952 42.2133 115.573 43.1307 115.136 43.984H116.912V45.088H114.256V47.408H116.576V48.48H114.256V50.8H117.264V51.904H114.256V55.584H113.12V51.904H110.144V50.8H113.12V48.48H110.64V47.408H113.12V45.088ZM127.328 43.744H128.304V49.008C128.272 50.7893 127.984 52.224 127.44 53.312C126.917 54.304 126.048 55.0773 124.832 55.632L124.288 54.752C125.408 54.208 126.197 53.4987 126.656 52.624C126.891 52.08 127.072 51.424 127.2 50.656C126.411 51.072 125.643 51.4507 124.896 51.792L124.592 50.8C124.837 50.6507 124.96 50.384 124.96 50V42.384C126.325 41.968 127.381 41.488 128.128 40.944L128.736 41.824C128.107 42.272 127.189 42.6987 125.984 43.104V50.176C126.464 49.952 126.907 49.728 127.312 49.504L127.328 49.248V43.744ZM130.768 52.736L130.48 51.696L131.312 51.744C131.632 51.744 131.792 51.5253 131.792 51.088V42.976H130.304V55.552H129.296V41.968H132.768V51.312C132.768 52.2613 132.395 52.736 131.648 52.736H130.768ZM118.784 41.568H124.48V42.64H123.584V51.344C123.733 51.28 123.957 51.1947 124.256 51.088V52.208L123.584 52.448V55.568H122.544V52.784C121.307 53.1573 120.107 53.472 118.944 53.728L118.672 52.672L119.616 52.48V42.64H118.784V41.568ZM120.688 52.24C121.339 52.0693 121.957 51.8933 122.544 51.712V49.392H120.688V52.24ZM120.688 48.336H122.544V46.064H120.688V48.336ZM120.688 45.008H122.544V42.64H120.688V45.008Z" fill="#646A73"/>
</g>
<g filter="url(#filter3_d_1163_13680)">
<rect x="71" y="145" width="115.2" height="32" rx="6.4" fill="white" shape-rendering="crispEdges"/>
<rect x="71.2" y="145.2" width="114.8" height="31.6" rx="6.2" stroke="#DEE0E3" stroke-width="0.4" shape-rendering="crispEdges"/>
<path fill-rule="evenodd" clip-rule="evenodd" d="M86.5996 154.6C86.5996 153.716 87.316 153 88.1996 153H96.931L100.2 156.269V167.4C100.2 168.284 99.4833 169 98.5996 169H88.1996C87.316 169 86.5996 168.284 86.5996 167.4V154.6ZM96.2682 154.6L88.1996 154.6V167.4H98.5996V156.931L96.2682 154.6ZM96.5996 160.6H90.1996V159H96.5996V160.6ZM94.1996 163.8H90.1996V162.2H94.1996V163.8Z" fill="#8F959E"/>
<path d="M120.895 157.141C119.905 157.977 118.796 158.664 117.567 159.202V159.227C118.864 159.773 120.088 160.447 121.24 161.25L120.703 162.056C119.704 161.271 118.68 160.631 117.631 160.136C117.75 161.757 117.959 162.875 118.258 163.49C118.744 164.531 119.312 165.064 119.96 165.09C120.14 165.073 120.293 164.94 120.421 164.693C120.549 164.437 120.652 163.869 120.728 162.99L121.612 163.285C121.484 164.403 121.236 165.201 120.869 165.678C120.579 165.943 120.293 166.075 120.012 166.075C119.03 166.058 118.215 165.431 117.567 164.194C116.901 162.922 116.568 160.26 116.568 156.206H109.874V155.285H117.49V156.181C117.49 156.932 117.503 157.636 117.528 158.293C118.569 157.789 119.517 157.162 120.37 156.411L120.895 157.141ZM127.436 154.491H128.357V156.731H132.108V157.179L131.852 160.174H133.669C133.661 162.623 133.46 164.061 133.068 164.488C132.897 164.676 132.641 164.808 132.3 164.885C131.975 164.945 131.698 164.974 131.468 164.974H130.623L130.38 164.104L131.621 164.117C132.005 164.108 132.278 164.002 132.44 163.797C132.611 163.583 132.718 162.67 132.76 161.058H128.357V166.293H127.436V161.058H122.892V160.174H127.436V157.614H123.621V156.731H127.436V154.491ZM128.357 160.174H130.956L131.199 157.614H128.357V160.174ZM131.583 154.542C132.539 155.037 133.405 155.613 134.181 156.27L133.695 157.038C132.841 156.262 131.98 155.66 131.109 155.234L131.583 154.542ZM136.908 155.285H146.021V156.181H136.908V155.285ZM135.679 158.856H147.16V159.778H141.016C139.856 162.167 138.828 163.848 137.932 164.821C140.227 164.693 142.523 164.475 144.818 164.168C144.357 163.349 143.845 162.504 143.282 161.634L144.024 161.173C145.185 162.914 146.094 164.454 146.751 165.794L145.932 166.37C145.71 165.892 145.488 165.439 145.266 165.013C142.8 165.329 139.967 165.593 136.767 165.806L136.524 164.872C136.575 164.855 136.647 164.825 136.741 164.782C137.569 164.159 138.653 162.491 139.992 159.778H135.679V158.856ZM148.62 156.706H153.919C153.569 156.014 153.142 155.374 152.639 154.786L153.56 154.453C154.021 155.033 154.465 155.784 154.892 156.706H159.781V157.627H157.784C157.153 159.658 156.21 161.352 154.956 162.709C156.304 163.852 158.006 164.804 160.063 165.563L159.564 166.331C157.447 165.538 155.698 164.548 154.316 163.362C152.856 164.701 151.039 165.687 148.863 166.318L148.376 165.512C150.535 164.932 152.302 164.019 153.676 162.773C152.199 161.322 151.171 159.607 150.591 157.627H148.62V156.706ZM151.5 157.627C152.046 159.351 152.984 160.853 154.316 162.133C155.451 160.895 156.287 159.394 156.824 157.627H151.5ZM165.887 158.984H168.741V154.542H169.676V158.984H172.312V166.28H171.391V165.742H165.656V164.846H171.391V162.773H166.207V161.902H171.391V159.88H165.887V158.984ZM172.671 155.579C172.321 156.501 171.86 157.418 171.288 158.331L170.495 157.922C171.084 156.966 171.536 156.057 171.852 155.195L172.671 155.579ZM166.527 155.285C166.971 156.053 167.406 156.927 167.832 157.909L167.039 158.306C166.655 157.384 166.215 156.509 165.72 155.682L166.527 155.285ZM164.005 166.229H163.071V159.816C162.653 161.036 162.111 162.146 161.445 163.144L161.048 162.146C161.987 160.925 162.657 159.522 163.058 157.934H161.33V157.051H163.071V154.555H164.005V157.051H165.528V157.934H164.005V158.677C164.551 159.266 165.144 159.978 165.784 160.814L165.26 161.582C164.731 160.738 164.312 160.11 164.005 159.701V166.229Z" fill="#646A73"/>
</g>
<g filter="url(#filter4_d_1163_13680)">
<rect x="41" y="84" width="112" height="40" rx="8" fill="white" shape-rendering="crispEdges"/>
<rect x="41.25" y="84.25" width="111.5" height="39.5" rx="7.75" stroke="#DEE0E3" stroke-width="0.5" shape-rendering="crispEdges"/>
<path fill-rule="evenodd" clip-rule="evenodd" d="M59.1499 103.473C61.9142 99.0138 65.1799 96.5 68.9998 96.5C72.8197 96.5 76.0854 99.0138 78.8497 103.473L79.1764 104L78.8497 104.527C76.0854 108.986 72.8197 111.5 68.9998 111.5C65.1799 111.5 61.9142 108.986 59.1499 104.527L58.8232 104L59.1499 103.473ZM61.1851 104C63.692 107.833 66.3123 109.5 68.9998 109.5C71.6873 109.5 74.3076 107.833 76.8145 104C74.3076 100.167 71.6873 98.5 68.9998 98.5C66.3123 98.5 63.692 100.167 61.1851 104ZM68.9998 102.5C68.1714 102.5 67.4998 103.172 67.4998 104C67.4998 104.828 68.1714 105.5 68.9998 105.5C69.8282 105.5 70.4998 104.828 70.4998 104C70.4998 103.172 69.8282 102.5 68.9998 102.5ZM65.4998 104C65.4998 102.067 67.0668 100.5 68.9998 100.5C70.9328 100.5 72.4998 102.067 72.4998 104C72.4998 105.933 70.9328 107.5 68.9998 107.5C67.0668 107.5 65.4998 105.933 65.4998 104Z" fill="#8F959E"/>
<path d="M90.264 102.592H96.072C96.2533 101.547 96.3867 100.32 96.472 98.912H90.68V97.792H103.32V98.912H97.64C97.5333 100.373 97.3947 101.6 97.224 102.592H103.784V103.696H97.896C99.016 106.747 101.144 109.088 104.28 110.72L103.56 111.648C100.275 109.856 98.0613 107.312 96.92 104.016C96.6427 105.136 96.3013 106.053 95.896 106.768C94.7973 108.667 92.9787 110.293 90.44 111.648L89.72 110.704C92.1093 109.488 93.8053 108.032 94.808 106.336C95.2133 105.643 95.5547 104.763 95.832 103.696H90.264V102.592ZM113.464 104.352V109.888C114.36 109.643 115.229 109.333 116.072 108.96L116.328 109.968C115.229 110.437 113.864 110.885 112.232 111.312L111.992 110.4C112.227 110.304 112.344 110.149 112.344 109.936V97.568H119.048V104.352H116.232C116.413 105.355 116.723 106.256 117.16 107.056C117.907 106.64 118.611 106.011 119.272 105.168L119.976 105.872C119.304 106.747 118.536 107.419 117.672 107.888C118.376 108.891 119.277 109.739 120.376 110.432L119.736 111.44C117.219 109.723 115.704 107.36 115.192 104.352H113.464ZM110.904 97.792V110.512H109.784V109.296H107.368V110.88H106.264V97.792H110.904ZM107.368 108.208H109.784V105.792H107.368V108.208ZM107.368 104.752H109.784V102.336H107.368V104.752ZM107.368 101.28H109.784V98.88H107.368V101.28ZM113.464 101.52V103.328H117.928V101.52H113.464ZM117.928 100.496V98.624H113.464V100.496H117.928ZM124.248 103.024H128.472V99.424H128.376C127.128 100.96 125.101 102.235 122.296 103.248L121.688 102.224C124.227 101.488 126.131 100.555 127.4 99.424H122.456V98.368H128.472V96.896H129.592V98.368H135.608V99.424H130.696C131.901 100.597 133.763 101.52 136.28 102.192L135.784 103.232C132.893 102.251 130.861 100.981 129.688 99.424H129.592V103.024H133.8V108.8H124.248V103.024ZM132.68 107.776V106.432H125.368V107.776H132.68ZM125.368 105.44H132.68V104.048H125.368V105.44ZM122.136 110.064H135.88V111.136H122.136V110.064Z" fill="#646A73"/>
</g>
<g filter="url(#filter5_d_1163_13680)">
<rect x="367" y="101" width="128" height="40" rx="8" fill="white" shape-rendering="crispEdges"/>
<rect x="367.25" y="101.25" width="127.5" height="39.5" rx="7.75" stroke="#DEE0E3" stroke-width="0.5" shape-rendering="crispEdges"/>
<path fill-rule="evenodd" clip-rule="evenodd" d="M395 113.5C393.343 113.5 392 114.843 392 116.5C392 117.433 392.425 118.266 393.095 118.818L393.687 119.305L391.553 124H398.447L396.313 119.305L396.905 118.818C397.575 118.266 398 117.433 398 116.5C398 114.843 396.657 113.5 395 113.5ZM387.5 126V128.5H402.5V126H387.5ZM389.356 124H387C386.172 124 385.5 124.672 385.5 125.5V129C385.5 129.828 386.172 130.5 387 130.5H403C403.828 130.5 404.5 129.828 404.5 129V125.5C404.5 124.672 403.828 124 403 124H400.644L398.742 119.816C399.524 118.934 400 117.772 400 116.5C400 113.739 397.761 111.5 395 111.5C392.239 111.5 390 113.739 390 116.5C390 117.772 390.476 118.934 391.258 119.816L389.356 124Z" fill="#8F959E"/>
<path d="M429.368 117.176C428.131 118.221 426.744 119.08 425.208 119.752V119.784C426.829 120.467 428.36 121.309 429.8 122.312L429.128 123.32C427.88 122.339 426.6 121.539 425.288 120.92C425.437 122.947 425.699 124.344 426.072 125.112C426.68 126.413 427.389 127.08 428.2 127.112C428.424 127.091 428.616 126.925 428.776 126.616C428.936 126.296 429.064 125.587 429.16 124.488L430.264 124.856C430.104 126.253 429.795 127.251 429.336 127.848C428.973 128.179 428.616 128.344 428.264 128.344C427.037 128.323 426.019 127.539 425.208 125.992C424.376 124.403 423.96 121.075 423.96 116.008H415.592V114.856H425.112V115.976C425.112 116.915 425.128 117.795 425.16 118.616C426.461 117.987 427.645 117.203 428.712 116.264L429.368 117.176ZM437.544 113.864H438.696V116.664H443.384V117.224L443.064 120.968H445.336C445.325 124.029 445.075 125.827 444.584 126.36C444.371 126.595 444.051 126.76 443.624 126.856C443.219 126.931 442.872 126.968 442.584 126.968H441.528L441.224 125.88L442.776 125.896C443.256 125.885 443.597 125.752 443.8 125.496C444.013 125.229 444.147 124.088 444.2 122.072H438.696V128.616H437.544V122.072H431.864V120.968H437.544V117.768H432.776V116.664H437.544V113.864ZM438.696 120.968H441.944L442.248 117.768H438.696V120.968ZM442.728 113.928C443.923 114.547 445.005 115.267 445.976 116.088L445.368 117.048C444.301 116.077 443.224 115.325 442.136 114.792L442.728 113.928ZM450.92 122.504V124.344H454.472V122.504H450.92ZM454.472 125.4H450.92V126.344H449.8V118.584H454.472V116.984H455.624V118.584H460.344V126.296H459.224V125.4H455.624V128.648H454.472V125.4ZM455.624 124.344H459.224V122.504H455.624V124.344ZM459.224 121.48V119.64H455.624V121.48H459.224ZM454.472 119.64H450.92V121.48H454.472V119.64ZM461.64 115.144V117.944H460.52V116.184H449.416V118.024H448.296V115.144H454.392C454.211 114.685 454.045 114.301 453.896 113.992L455.112 113.784C455.229 114.083 455.384 114.536 455.576 115.144H461.64ZM468.44 122.008C467.992 122.2 467.475 122.408 466.888 122.632V126.984C466.888 127.997 466.408 128.504 465.448 128.504H464.168L463.928 127.368C464.355 127.421 464.728 127.448 465.048 127.448C465.528 127.448 465.768 127.197 465.768 126.696V123.016C465.384 123.133 464.808 123.299 464.04 123.512L463.768 122.408C464.525 122.248 465.192 122.083 465.768 121.912V117.992H463.96V116.888H465.768V113.928H466.888V116.888H468.472V117.992H466.888V121.544C467.389 121.363 467.907 121.155 468.44 120.92V122.008ZM470.392 119.816V126.92C471.139 126.717 471.837 126.461 472.488 126.152L472.696 127.224C471.629 127.672 470.403 128.056 469.016 128.376L468.728 127.304C469.08 127.187 469.256 126.952 469.256 126.6V114.04H470.392V118.696H472.616V119.816H470.392ZM474.776 128.408C473.848 128.408 473.384 127.907 473.384 126.904V113.976H474.52V118.76C475.48 118.408 476.403 117.944 477.288 117.368L477.944 118.312C476.771 118.995 475.629 119.523 474.52 119.896V126.664C474.52 127.101 474.728 127.32 475.144 127.32H475.928C476.269 127.32 476.515 127.197 476.664 126.952C476.845 126.653 476.968 125.747 477.032 124.232L478.088 124.568C477.971 126.392 477.757 127.501 477.448 127.896C477.171 128.237 476.728 128.408 476.12 128.408H474.776Z" fill="#646A73"/>
</g>
<rect y="100" width="528" height="100" fill="url(#paint4_linear_1163_13680)"/>
<defs>
<filter id="filter0_d_1163_13680" x="186.266" y="27.5999" width="155.467" height="155.467" filterUnits="userSpaceOnUse" color-interpolation-filters="sRGB">
<feFlood flood-opacity="0" result="BackgroundImageFix"/>
<feColorMatrix in="SourceAlpha" type="matrix" values="0 0 0 0 0 0 0 0 0 0 0 0 0 0 0 0 0 0 127 0" result="hardAlpha"/>
<feMorphology radius="2.66667" operator="dilate" in="SourceAlpha" result="effect1_dropShadow_1163_13680"/>
<feOffset dy="5.33333"/>
<feGaussianBlur stdDeviation="17.2"/>
<feComposite in2="hardAlpha" operator="out"/>
<feColorMatrix type="matrix" values="0 0 0 0 0 0 0 0 0 0.290333 0 0 0 0 0.558333 0 0 0 0.12 0"/>
<feBlend mode="normal" in2="BackgroundImageFix" result="effect1_dropShadow_1163_13680"/>
<feBlend mode="normal" in="SourceGraphic" in2="effect1_dropShadow_1163_13680" result="shape"/>
</filter>
<filter id="filter1_d_1163_13680" x="377.2" y="38.2" width="135.6" height="47.6" filterUnits="userSpaceOnUse" color-interpolation-filters="sRGB">
<feFlood flood-opacity="0" result="BackgroundImageFix"/>
<feColorMatrix in="SourceAlpha" type="matrix" values="0 0 0 0 0 0 0 0 0 0 0 0 0 0 0 0 0 0 127 0" result="hardAlpha"/>
<feOffset dx="1" dy="2"/>
<feGaussianBlur stdDeviation="1.9"/>
<feComposite in2="hardAlpha" operator="out"/>
<feColorMatrix type="matrix" values="0 0 0 0 0.256771 0 0 0 0 0.317333 0 0 0 0 0.425 0 0 0 0.06 0"/>
<feBlend mode="normal" in2="BackgroundImageFix" result="effect1_dropShadow_1163_13680"/>
<feBlend mode="normal" in="SourceGraphic" in2="effect1_dropShadow_1163_13680" result="shape"/>
</filter>
<filter id="filter2_d_1163_13680" x="19.2" y="26.2" width="135.6" height="47.6" filterUnits="userSpaceOnUse" color-interpolation-filters="sRGB">
<feFlood flood-opacity="0" result="BackgroundImageFix"/>
<feColorMatrix in="SourceAlpha" type="matrix" values="0 0 0 0 0 0 0 0 0 0 0 0 0 0 0 0 0 0 127 0" result="hardAlpha"/>
<feOffset dx="1" dy="2"/>
<feGaussianBlur stdDeviation="1.9"/>
<feComposite in2="hardAlpha" operator="out"/>
<feColorMatrix type="matrix" values="0 0 0 0 0.256771 0 0 0 0 0.317333 0 0 0 0 0.425 0 0 0 0.06 0"/>
<feBlend mode="normal" in2="BackgroundImageFix" result="effect1_dropShadow_1163_13680"/>
<feBlend mode="normal" in="SourceGraphic" in2="effect1_dropShadow_1163_13680" result="shape"/>
</filter>
<filter id="filter3_d_1163_13680" x="68.76" y="143.56" width="121.28" height="38.08" filterUnits="userSpaceOnUse" color-interpolation-filters="sRGB">
<feFlood flood-opacity="0" result="BackgroundImageFix"/>
<feColorMatrix in="SourceAlpha" type="matrix" values="0 0 0 0 0 0 0 0 0 0 0 0 0 0 0 0 0 0 127 0" result="hardAlpha"/>
<feOffset dx="0.8" dy="1.6"/>
<feGaussianBlur stdDeviation="1.52"/>
<feComposite in2="hardAlpha" operator="out"/>
<feColorMatrix type="matrix" values="0 0 0 0 0.256771 0 0 0 0 0.317333 0 0 0 0 0.425 0 0 0 0.06 0"/>
<feBlend mode="normal" in2="BackgroundImageFix" result="effect1_dropShadow_1163_13680"/>
<feBlend mode="normal" in="SourceGraphic" in2="effect1_dropShadow_1163_13680" result="shape"/>
</filter>
<filter id="filter4_d_1163_13680" x="38.2" y="82.2" width="119.6" height="47.6" filterUnits="userSpaceOnUse" color-interpolation-filters="sRGB">
<feFlood flood-opacity="0" result="BackgroundImageFix"/>
<feColorMatrix in="SourceAlpha" type="matrix" values="0 0 0 0 0 0 0 0 0 0 0 0 0 0 0 0 0 0 127 0" result="hardAlpha"/>
<feOffset dx="1" dy="2"/>
<feGaussianBlur stdDeviation="1.9"/>
<feComposite in2="hardAlpha" operator="out"/>
<feColorMatrix type="matrix" values="0 0 0 0 0.256771 0 0 0 0 0.317333 0 0 0 0 0.425 0 0 0 0.06 0"/>
<feBlend mode="normal" in2="BackgroundImageFix" result="effect1_dropShadow_1163_13680"/>
<feBlend mode="normal" in="SourceGraphic" in2="effect1_dropShadow_1163_13680" result="shape"/>
</filter>
<filter id="filter5_d_1163_13680" x="364.2" y="99.2" width="135.6" height="47.6" filterUnits="userSpaceOnUse" color-interpolation-filters="sRGB">
<feFlood flood-opacity="0" result="BackgroundImageFix"/>
<feColorMatrix in="SourceAlpha" type="matrix" values="0 0 0 0 0 0 0 0 0 0 0 0 0 0 0 0 0 0 127 0" result="hardAlpha"/>
<feOffset dx="1" dy="2"/>
<feGaussianBlur stdDeviation="1.9"/>
<feComposite in2="hardAlpha" operator="out"/>
<feColorMatrix type="matrix" values="0 0 0 0 0.256771 0 0 0 0 0.317333 0 0 0 0 0.425 0 0 0 0.06 0"/>
<feBlend mode="normal" in2="BackgroundImageFix" result="effect1_dropShadow_1163_13680"/>
<feBlend mode="normal" in="SourceGraphic" in2="effect1_dropShadow_1163_13680" result="shape"/>
</filter>
<linearGradient id="paint0_linear_1163_13680" x1="261.823" y1="115.656" x2="284.129" y2="104.255" gradientUnits="userSpaceOnUse">
<stop offset="0.0329988" stop-color="#1465DB"/>
<stop offset="1" stop-color="#5F99FF"/>
</linearGradient>
<radialGradient id="paint1_radial_1163_13680" cx="0" cy="0" r="1" gradientUnits="userSpaceOnUse" gradientTransform="translate(250.083 100.805) scale(29.284 28.8125)">
<stop offset="0.0956921" stop-color="#0B47FE"/>
<stop offset="0.8118" stop-color="#478AEA"/>
</radialGradient>
<linearGradient id="paint2_linear_1163_13680" x1="284.951" y1="78.5665" x2="263.016" y2="95.916" gradientUnits="userSpaceOnUse">
<stop offset="0.0688251" stop-color="#8FFEE9"/>
<stop offset="1" stop-color="#00D0B3"/>
</linearGradient>
<linearGradient id="paint3_linear_1163_13680" x1="262.541" y1="98.6184" x2="244.696" y2="89.448" gradientUnits="userSpaceOnUse">
<stop offset="0.0569487" stop-color="#06C1A1"/>
<stop offset="1" stop-color="#00D2B5"/>
</linearGradient>
<linearGradient id="paint4_linear_1163_13680" x1="373.5" y1="100" x2="373.5" y2="200" gradientUnits="userSpaceOnUse">
<stop stop-color="white" stop-opacity="0"/>
<stop offset="1" stop-color="white"/>
</linearGradient>
</defs>
</svg>
