<svg width="28" height="28" viewBox="0 0 28 28" fill="none" xmlns="http://www.w3.org/2000/svg">
<path d="M27.5606 10.4956C28.1465 12.7762 28.1465 15.122 27.5606 17.3375C26.9747 19.6833 25.7379 21.9639 23.9152 23.8536C22.0925 25.6781 19.8792 26.9162 17.5357 27.5026C16.2989 27.1117 15.1271 26.5904 14.0205 25.8736C13.1742 25.3523 12.3931 24.7007 11.677 23.9839C10.3751 22.6807 9.33352 21.1168 8.68255 19.4878C8.42217 18.8362 8.22688 18.1846 8.03159 17.533C8.29197 17.9891 8.68255 18.4452 9.07313 18.8362C9.659 19.4227 10.3751 19.8788 11.0911 20.2046C12.8487 21.0517 14.9318 21.0517 16.7545 20.2698C17.7961 20.0743 18.7725 19.7485 19.749 19.3575C21.3113 18.7059 22.7434 17.7285 24.0454 16.4253C24.8916 15.5782 25.5426 14.7311 26.1285 13.7537C26.7794 12.8414 27.2351 11.6685 27.5606 10.4956Z" fill="url(#paint0_linear_1847_12510)"/>
<path d="M12.7185 7.10742C11.3515 7.36807 10.1147 8.01968 9.07311 9.06225C8.74763 9.38806 8.42214 9.77902 8.22685 10.1048C6.72963 12.3855 6.66453 15.3177 8.09666 17.5983C8.29195 18.25 8.48724 18.9016 8.74763 19.5532C9.39859 21.1822 10.4401 22.6809 11.7421 24.0493C12.4581 24.7661 13.2393 25.4177 14.0856 25.9389C15.1922 26.6557 16.3639 27.177 17.6008 27.568C15.1922 28.1544 12.7185 28.1544 10.3099 27.5028C8.03156 26.8512 5.94847 25.6783 4.12576 23.919C2.30305 22.0944 1.13131 19.9441 0.480347 17.6635C0.80583 16.3603 1.3266 15.0571 2.10776 13.819C2.69363 12.8416 3.3446 11.9945 4.19086 11.1474C5.62298 9.71386 7.2504 8.67129 9.00801 7.95451C10.2448 7.49839 11.4817 7.23774 12.7185 7.10742Z" fill="url(#paint1_radial_1847_12510)"/>
<path d="M23.9152 4.04487C25.7379 5.86938 26.9747 8.15001 27.5606 10.4958C27.2351 11.6687 26.7143 12.7764 26.0634 13.8842C25.4775 14.8616 24.8265 15.7087 23.9803 16.5558C22.6783 17.859 21.2462 18.8364 19.6839 19.488C18.7074 19.879 17.731 20.2048 16.6894 20.4003C17.4706 20.0745 18.2518 19.5532 18.9027 18.9016C19.8141 17.9893 20.465 16.8164 20.7254 15.6435C20.9858 14.6009 20.9858 13.4932 20.7905 12.4506C20.6603 11.0171 20.2697 9.58355 19.6839 8.21517C19.0329 6.65131 18.0565 5.21777 16.7545 3.97971C16.0385 3.26294 15.2573 2.61133 14.411 2.09004C13.2393 1.30811 11.9374 0.721658 10.5703 0.395853C13.044 -0.190596 15.5828 -0.125435 17.9914 0.591336C20.2047 1.17778 22.2226 2.35068 23.9152 4.04487Z" fill="url(#paint2_linear_1847_12510)"/>
<path d="M16.8196 3.97958C18.0565 5.21764 19.0329 6.71634 19.749 8.21505C20.3349 9.58343 20.7254 11.017 20.8556 12.4505C20.5953 11.2125 19.9443 9.97439 18.9678 8.99698C17.9263 7.9544 16.5593 7.30279 15.1922 7.04215C14.4111 6.91183 13.5648 6.91183 12.7186 7.04215C11.4817 7.17247 10.2449 7.43311 9.00804 7.88924C7.25043 8.54085 5.55792 9.64859 4.19089 11.0821C3.34463 11.9292 2.69367 12.7763 2.1078 13.7537C1.39173 14.9918 0.870959 16.2298 0.480379 17.5982C-0.170588 15.1221 -0.170588 12.5157 0.545476 10.0396C1.19644 7.82408 2.36818 5.73893 4.12579 4.04474C6.0136 2.15507 8.29198 0.917015 10.6355 0.330566C11.9374 0.721532 13.2393 1.24282 14.4762 2.02475C15.3224 2.6112 16.1036 3.26281 16.8196 3.97958Z" fill="url(#paint3_linear_1847_12510)"/>
<defs>
<linearGradient id="paint0_linear_1847_12510" x1="13.0808" y1="22.6099" x2="25.7916" y2="16.1197" gradientUnits="userSpaceOnUse">
<stop offset="0.0329988" stop-color="#1465DB"/>
<stop offset="1" stop-color="#5F99FF"/>
</linearGradient>
<radialGradient id="paint1_radial_1847_12510" cx="0" cy="0" r="1" gradientUnits="userSpaceOnUse" gradientTransform="translate(6.39386 14.1422) scale(16.68 16.4277)">
<stop offset="0.0956921" stop-color="#0B47FE"/>
<stop offset="0.8118" stop-color="#478AEA"/>
</radialGradient>
<linearGradient id="paint2_linear_1847_12510" x1="26.254" y1="1.46332" x2="13.7506" y2="11.3433" gradientUnits="userSpaceOnUse">
<stop offset="0.0688251" stop-color="#8FFEE9"/>
<stop offset="1" stop-color="#00D0B3"/>
</linearGradient>
<linearGradient id="paint3_linear_1847_12510" x1="13.4903" y1="12.8956" x2="3.32163" y2="7.6752" gradientUnits="userSpaceOnUse">
<stop offset="0.0569487" stop-color="#06C1A1"/>
<stop offset="1" stop-color="#00D2B5"/>
</linearGradient>
</defs>
</svg>
