<svg width="28" height="28" viewBox="0 0 28 28" fill="none" xmlns="http://www.w3.org/2000/svg">
<path d="M10.4981 4.84277H7.96176C5.98646 4.84277 4.57014 6.71265 5.20239 8.58646C6.46608 12.3316 8.16543 15.6494 10.3796 17.8636C12.5938 20.0778 15.9116 21.7771 19.6568 23.0408C21.5305 23.6731 23.4004 22.2567 23.4004 20.2814V17.7447C23.4004 17.0185 23.0069 16.3495 22.3723 15.9967L20.1626 14.7682L20.0023 14.6882C19.4593 14.447 18.8332 14.4588 18.2962 14.7274L16.275 15.7369L16.227 15.7219C16.1471 15.6959 16.0574 15.6646 15.9593 15.6275C15.4567 15.4376 14.9533 15.1726 14.4871 14.8231C14.2848 14.6714 14.0936 14.5066 13.9151 14.328C13.7344 14.1473 13.5675 13.9534 13.4141 13.7481C13.0657 13.2821 12.8008 12.7787 12.6105 12.2762L12.5157 12.0083L12.5 11.9589L13.5101 9.94061C13.8053 9.35039 13.7902 8.65248 13.4699 8.07546L12.2467 5.87204C11.894 5.23678 11.2246 4.84277 10.4981 4.84277ZM7.96176 6.84277H10.4981L11.7213 9.04613L10.5429 11.4031C10.4442 11.6003 10.4136 11.8247 10.4557 12.0412C10.6034 12.8005 11.0088 13.8707 11.812 14.9454C12.0217 15.226 12.251 15.4924 12.5009 15.7423C12.7478 15.9892 13.0108 16.2159 13.2874 16.4233C14.3644 17.2307 15.4373 17.636 16.1987 17.7821C16.4144 17.8234 16.6378 17.7926 16.8343 17.6944L19.1907 16.5162L21.4004 17.7447V20.2814C21.4004 20.9139 20.8484 21.3321 20.2962 21.1458C16.8183 19.9723 13.7401 18.3956 11.7938 16.4494C9.84757 14.5031 8.27092 11.4248 7.09742 7.94704C6.9111 7.39484 7.32926 6.84277 7.96176 6.84277Z" fill="#8F959E"/>
</svg>
