<svg width="40" height="40" viewBox="0 0 40 40" fill="none" xmlns="http://www.w3.org/2000/svg">
<path d="M4.16675 4.16667C4.16675 3.24618 4.91295 2.5 5.83341 2.5H27.2749C29.5447 2.5 31.7216 3.36765 33.3267 4.91207C34.9317 6.45648 35.8334 8.55117 35.8334 10.7353V35.8333C35.8334 36.7538 35.0872 37.5 34.1667 37.5H12.7253C10.4554 37.5 8.27853 36.6323 6.6735 35.088C5.06845 33.5435 4.16675 31.4488 4.16675 29.2647V4.16667Z" fill="#A45EEB"/>
<path d="M11.25 13.4989C11.25 12.8546 11.7723 12.3323 12.4167 12.3323H15.0833C15.7277 12.3323 16.25 12.8546 16.25 13.4989C16.25 14.1433 15.7277 14.6656 15.0833 14.6656H12.4167C11.7723 14.6656 11.25 14.1433 11.25 13.4989Z" fill="white"/>
<path d="M11.25 19.9987C11.25 19.3544 11.7723 18.832 12.4167 18.832H15.0833C15.7277 18.832 16.25 19.3544 16.25 19.9987C16.25 20.643 15.7277 21.1654 15.0833 21.1654H12.4167C11.7723 21.1654 11.25 20.643 11.25 19.9987Z" fill="white"/>
<path d="M11.25 26.4989C11.25 25.8546 11.7723 25.3323 12.4167 25.3323H15.0833C15.7277 25.3323 16.25 25.8546 16.25 26.4989C16.25 27.1433 15.7277 27.6656 15.0833 27.6656H12.4167C11.7723 27.6656 11.25 27.1433 11.25 26.4989Z" fill="white"/>
<path d="M27.6923 12.3323H20.6409C20.0568 12.3323 19.5833 12.8546 19.5833 13.4989C19.5833 14.1433 20.0568 14.6656 20.6409 14.6656H27.6923C28.2764 14.6656 28.7499 14.1433 28.7499 13.4989C28.7499 12.8546 28.2764 12.3323 27.6923 12.3323Z" fill="white"/>
<path d="M27.6923 18.832H20.6409C20.0568 18.832 19.5833 19.3544 19.5833 19.9987C19.5833 20.643 20.0568 21.1654 20.6409 21.1654H27.6923C28.2764 21.1654 28.7499 20.643 28.7499 19.9987C28.7499 19.3544 28.2764 18.832 27.6923 18.832Z" fill="white"/>
<path d="M27.6923 25.3323H20.6409C20.0568 25.3323 19.5833 25.8546 19.5833 26.4989C19.5833 27.1433 20.0568 27.6656 20.6409 27.6656H27.6923C28.2764 27.6656 28.7499 27.1433 28.7499 26.4989C28.7499 25.8546 28.2764 25.3323 27.6923 25.3323Z" fill="white"/>
</svg>
