<svg width="200" height="70" viewBox="0 0 200 70" fill="none" xmlns="http://www.w3.org/2000/svg">
<g opacity="0.25">
<path d="M27.3998 17.4002C31.0449 17.4002 33.9998 14.4453 33.9998 10.8002C33.9998 7.15512 31.0449 4.2002 27.3998 4.2002C23.7547 4.2002 20.7998 7.15512 20.7998 10.8002C20.7998 14.4453 23.7547 17.4002 27.3998 17.4002Z" fill="black"/>
<path d="M41.5002 28.9001L35.0002 38.1001L27.3002 49.0001C28.4002 47.2001 29.0002 45.1001 29.0002 42.9001C29.0002 38.5001 26.5002 34.4001 22.5002 32.5001L21.9002 32.2001L21.2002 31.9001L9.30024 26.7001C8.20024 26.1001 7.60024 24.9001 7.70024 23.7001C7.80024 21.9001 9.30024 20.6001 11.1002 20.6001H37.1002C39.8002 20.6001 42.1002 22.6001 42.4002 25.3001C42.5002 26.6001 42.2002 27.8001 41.5002 28.9001Z" fill="black"/>
<path d="M22.5998 32.6L21.9998 32.3L21.2998 32C21.3998 32 21.4998 32.1 21.4998 32.1C22.4998 32.7 23.0998 33.8 23.0998 34.9C23.0998 35.3 22.9998 35.6 22.8998 36V36.1L17.9998 49.7C17.8998 50.1 17.7998 50.5 17.7998 50.9C17.7998 53 19.3998 54.7 21.4998 54.7C22.6998 54.7 23.8998 54.1 24.5998 53.1C24.5998 53.1 27.1998 49.4 27.4998 49C28.5998 47.2 29.1998 45.1 29.1998 42.9C29.0998 38.5 26.4998 34.5 22.5998 32.6Z" fill="black"/>
<path d="M143.3 46.7002H157.6V34.2002H143.3V46.7002ZM146.9 37.7002H154.3V43.2002H146.9V37.7002Z" fill="black"/>
<path d="M60.5999 46.9002C62.0999 44.2002 62.2999 40.7002 62.2999 37.6002V30.7002H65.5999V27.3002H62.2999V19.5002L58.8999 19.2002V27.3002H55.3999V30.7002H58.8999V37.6002C58.8999 41.4002 57.9999 46.2002 55.4999 47.5002L56.4999 50.7002L66.1999 49.7002L65.9999 46.2002L60.5999 46.9002Z" fill="black"/>
<path d="M67.7002 51.6001H86.3002V36.6001H67.7002V51.6001ZM71.1002 40.1001H82.8002V42.4001H71.1002V40.1001ZM71.1002 45.8001H82.8002V48.2001H71.1002V45.8001Z" fill="black"/>
<path d="M99.8001 46.9004V35.1004H120.8V31.6004H99.8001V28.2004C106.6 27.5004 113.3 25.5004 119.5 22.4004L117.8 19.4004C112.1 22.2004 106.1 24.0004 99.8001 24.7004V18.6004L96.4001 18.4004V31.7004H91.1001V35.2004H96.5001V51.7004H100.1L110 42.3004L119.5 51.3004L122.1 48.9004L110 37.5004L99.8001 46.9004Z" fill="black"/>
<path d="M142.7 32.7002H147.1C148.6 30.0002 149.6 27.1002 150.1 24.0002L150.2 23.7002H153.9V29.2002H151.5L151.3 32.8002H157.6V20.2002H143.4L143.2 23.7002H146.3L146.2 24.1002C145.6 27.1002 144.4 30.1002 142.7 32.7002Z" fill="black"/>
<path d="M178.2 32.2004C177.6 30.0004 177.3 27.8004 177.3 25.5004V18.8004L173.7 18.6004V25.2004C173.7 26.9004 173.5 28.5004 173.3 30.2004C171.9 37.9004 168.4 45.0004 159.9 47.8004C158.9 48.1004 157.9 48.2004 156.9 48.2004H135.6V41.0004H140.4V37.5004H135.6V33.2004H141.4V29.7004H135.6V25.6004H140.7V22.1004H135.6V18.6004L132.2 18.4004V22.1004H127.1V25.6004H132.2V29.7004H126.5V33.2004H132.2V47.4004C131.5 47.1004 130.9 46.7004 130.3 46.2004L129.3 45.4004C130 42.5004 130.4 39.5004 130.3 36.5004V36.0004H126.8V36.6004C126.9 41.1004 126 45.5004 124 49.6004L126.6 52.1004C127.1 51.1004 127.6 50.1004 128 49.1004C130.1 50.8004 132.8 51.8004 135.5 51.8004H156.9C159 51.8004 161 51.4004 162.9 50.5004C169.7 47.6004 173.4 41.8004 175.3 36.0004H175.5C178.6 44.3004 185.4 49.9004 192.2 51.4004V47.7004C186.4 45.8004 180.5 40.1004 178.2 32.2004Z" fill="black"/>
<path d="M84.0999 18.4004H80.6999L79.8999 20.4004H74.1999L73.3999 18.4004H69.9999L70.7999 20.4004H67.3999V35.1004H86.6999V20.4004H83.3999L84.0999 18.4004ZM71.0999 31.7004L76.9999 27.9004L82.8999 31.7004H71.0999ZM83.2999 28.1004L77.0999 23.9004L70.8999 28.1004V23.9004H83.2999V28.1004Z" fill="black"/>
</g>
</svg>
